{
	"asset":{
		"generator":"Khronos glTF Blender I/O v3.6.28",
		"version":"2.0"
	},
	"extensionsUsed":[
		"KHR_materials_specular",
		"KHR_materials_ior",
		"KHR_materials_emissive_strength"
	],
	"scene":0,
	"scenes":[
		{
			"name":"Scene",
			"nodes":[
				0
			]
		}
	],
	"nodes":[
		{
			"mesh":0,
			"name":"Speaker",
			"rotation":[
				0.699482262134552,
				-0.10355925559997559,
				0.10355927050113678,
				0.6994823217391968
			],
			"translation":[
				0.04071471095085144,
				0.8775935173034668,
				0.17905592918395996
			]
		}
	],
	"materials":[
		{
			"alphaMode":"BLEND",
			"doubleSided":true,
			"extensions":{
				"KHR_materials_specular":{
					"specularColorFactor":[
						0,
						0,
						0
					]
				},
				"KHR_materials_ior":{
					"ior":1.4500000476837158
				}
			},
			"name":"Speaker",
			"pbrMetallicRoughness":{
				"baseColorTexture":{
					"index":0
				},
				"metallicFactor":0,
				"roughnessFactor":0
			}
		},
		{
			"doubleSided":true,
			"name":"Material.001",
			"pbrMetallicRoughness":{
				"baseColorFactor":[
					0.46207642555236816,
					0.4620765149593353,
					0.46207696199417114,
					1
				],
				"metallicFactor":0,
				"roughnessFactor":0.5
			}
		},
		{
			"doubleSided":true,
			"name":"Glass - Optimized",
			"pbrMetallicRoughness":{}
		},
		{
			"doubleSided":true,
			"emissiveFactor":[
				1,
				1,
				1
			],
			"extensions":{
				"KHR_materials_emissive_strength":{
					"emissiveStrength":600
				}
			},
			"name":"Material.004",
			"pbrMetallicRoughness":{
				"baseColorFactor":[
					0,
					0,
					0,
					1
				]
			}
		},
		{
			"alphaMode":"BLEND",
			"doubleSided":true,
			"extensions":{
				"KHR_materials_specular":{
					"specularColorFactor":[
						0,
						0,
						0
					]
				},
				"KHR_materials_ior":{
					"ior":1.4500000476837158
				}
			},
			"name":"CAMERA",
			"pbrMetallicRoughness":{
				"baseColorTexture":{
					"index":1
				},
				"metallicFactor":0,
				"roughnessFactor":0
			}
		},
		{
			"alphaMode":"BLEND",
			"doubleSided":true,
			"extensions":{
				"KHR_materials_specular":{
					"specularColorFactor":[
						0,
						0,
						0
					]
				},
				"KHR_materials_ior":{
					"ior":1.4500000476837158
				}
			},
			"name":"HOLOVUE Sticker-01",
			"pbrMetallicRoughness":{
				"baseColorTexture":{
					"index":2
				},
				"metallicFactor":0,
				"roughnessFactor":0.5
			}
		},
		{
			"alphaMode":"BLEND",
			"doubleSided":true,
			"extensions":{
				"KHR_materials_specular":{
					"specularColorFactor":[
						0,
						0,
						0
					]
				},
				"KHR_materials_ior":{
					"ior":1.4500000476837158
				}
			},
			"name":"HOLOVUE Logo Black",
			"pbrMetallicRoughness":{
				"baseColorTexture":{
					"index":3
				},
				"metallicFactor":0,
				"roughnessFactor":0.5
			}
		},
		{
			"doubleSided":true,
			"name":"Material.003",
			"pbrMetallicRoughness":{
				"baseColorFactor":[
					0.46207642555236816,
					0.4620765149593353,
					0.46207696199417114,
					1
				],
				"metallicFactor":0,
				"roughnessFactor":0.5
			}
		},
		{
			"doubleSided":true,
			"extensions":{
				"KHR_materials_specular":{
					"specularColorFactor":[
						0.17866395502601035,
						0.17866395502601035,
						0.17866395502601035
					]
				},
				"KHR_materials_ior":{
					"ior":1.4500000476837158
				}
			},
			"name":"Material.002",
			"pbrMetallicRoughness":{
				"baseColorFactor":[
					0,
					0,
					0,
					1
				],
				"metallicFactor":0,
				"roughnessFactor":0.5
			}
		}
	],
	"meshes":[
		{
			"name":"Speaker",
			"primitives":[
				{
					"attributes":{
						"POSITION":0,
						"NORMAL":1,
						"TEXCOORD_0":2,
						"TEXCOORD_1":3
					},
					"indices":4,
					"material":0
				},
				{
					"attributes":{
						"POSITION":5,
						"NORMAL":6,
						"TEXCOORD_0":7,
						"TEXCOORD_1":8
					},
					"indices":9,
					"material":1
				},
				{
					"attributes":{
						"POSITION":10,
						"NORMAL":11,
						"TEXCOORD_0":12,
						"TEXCOORD_1":13
					},
					"indices":14,
					"material":2
				},
				{
					"attributes":{
						"POSITION":15,
						"NORMAL":16,
						"TEXCOORD_0":17,
						"TEXCOORD_1":18
					},
					"indices":19,
					"material":3
				},
				{
					"attributes":{
						"POSITION":20,
						"NORMAL":21,
						"TEXCOORD_0":22,
						"TEXCOORD_1":23
					},
					"indices":24,
					"material":4
				},
				{
					"attributes":{
						"POSITION":25,
						"NORMAL":26,
						"TEXCOORD_0":27,
						"TEXCOORD_1":28
					},
					"indices":24,
					"material":5
				},
				{
					"attributes":{
						"POSITION":29,
						"NORMAL":30,
						"TEXCOORD_0":31,
						"TEXCOORD_1":32
					},
					"indices":24,
					"material":6
				},
				{
					"attributes":{
						"POSITION":33,
						"NORMAL":34,
						"TEXCOORD_0":35,
						"TEXCOORD_1":36
					},
					"indices":37,
					"material":7
				},
				{
					"attributes":{
						"POSITION":38,
						"NORMAL":39,
						"TEXCOORD_0":40,
						"TEXCOORD_1":41
					},
					"indices":42,
					"material":8
				}
			]
		}
	],
	"textures":[
		{
			"sampler":0,
			"source":0
		},
		{
			"sampler":0,
			"source":1
		},
		{
			"sampler":0,
			"source":2
		},
		{
			"sampler":0,
			"source":3
		}
	],
	"images":[
		{
			"bufferView":5,
			"mimeType":"image/png",
			"name":"Speaker"
		},
		{
			"bufferView":26,
			"mimeType":"image/png",
			"name":"CAMERA"
		},
		{
			"bufferView":31,
			"mimeType":"image/png",
			"name":"HOLOVUE Sticker-01"
		},
		{
			"bufferView":36,
			"mimeType":"image/png",
			"name":"HOLOVUE Logo Black"
		}
	],
	"accessors":[
		{
			"bufferView":0,
			"componentType":5126,
			"count":8,
			"max":[
				4.862842559814453,
				3.481774091720581,
				-18.368087768554688
			],
			"min":[
				-4.833268165588379,
				3.4817733764648438,
				-19.004608154296875
			],
			"type":"VEC3"
		},
		{
			"bufferView":1,
			"componentType":5126,
			"count":8,
			"type":"VEC3"
		},
		{
			"bufferView":2,
			"componentType":5126,
			"count":8,
			"type":"VEC2"
		},
		{
			"bufferView":3,
			"componentType":5126,
			"count":8,
			"type":"VEC2"
		},
		{
			"bufferView":4,
			"componentType":5123,
			"count":12,
			"type":"SCALAR"
		},
		{
			"bufferView":6,
			"componentType":5126,
			"count":172,
			"max":[
				5.726954936981201,
				3.4791219234466553,
				0.0814504474401474
			],
			"min":[
				-5.732056140899658,
				2.26800537109375,
				-19.20322608947754
			],
			"type":"VEC3"
		},
		{
			"bufferView":7,
			"componentType":5126,
			"count":172,
			"type":"VEC3"
		},
		{
			"bufferView":8,
			"componentType":5126,
			"count":172,
			"type":"VEC2"
		},
		{
			"bufferView":9,
			"componentType":5126,
			"count":172,
			"type":"VEC2"
		},
		{
			"bufferView":10,
			"componentType":5123,
			"count":480,
			"type":"SCALAR"
		},
		{
			"bufferView":11,
			"componentType":5126,
			"count":8,
			"max":[
				4.881574630737305,
				3.0072686672210693,
				-0.9659931659698486
			],
			"min":[
				-4.894293308258057,
				3.007267475128174,
				-18.1602783203125
			],
			"type":"VEC3"
		},
		{
			"bufferView":12,
			"componentType":5126,
			"count":8,
			"type":"VEC3"
		},
		{
			"bufferView":13,
			"componentType":5126,
			"count":8,
			"type":"VEC2"
		},
		{
			"bufferView":14,
			"componentType":5126,
			"count":8,
			"type":"VEC2"
		},
		{
			"bufferView":15,
			"componentType":5123,
			"count":18,
			"type":"SCALAR"
		},
		{
			"bufferView":16,
			"componentType":5126,
			"count":36,
			"max":[
				5.623512268066406,
				3.2551355361938477,
				-0.021991584450006485
			],
			"min":[
				-5.628613471984863,
				-2.033860206604004,
				-19.09978485107422
			],
			"type":"VEC3"
		},
		{
			"bufferView":17,
			"componentType":5126,
			"count":36,
			"type":"VEC3"
		},
		{
			"bufferView":18,
			"componentType":5126,
			"count":36,
			"type":"VEC2"
		},
		{
			"bufferView":19,
			"componentType":5126,
			"count":36,
			"type":"VEC2"
		},
		{
			"bufferView":20,
			"componentType":5123,
			"count":78,
			"type":"SCALAR"
		},
		{
			"bufferView":21,
			"componentType":5126,
			"count":4,
			"max":[
				0.05889511480927467,
				3.487551212310791,
				-18.52298355102539
			],
			"min":[
				-0.06780454516410828,
				3.487551212310791,
				-18.840518951416016
			],
			"type":"VEC3"
		},
		{
			"bufferView":22,
			"componentType":5126,
			"count":4,
			"type":"VEC3"
		},
		{
			"bufferView":23,
			"componentType":5126,
			"count":4,
			"type":"VEC2"
		},
		{
			"bufferView":24,
			"componentType":5126,
			"count":4,
			"type":"VEC2"
		},
		{
			"bufferView":25,
			"componentType":5123,
			"count":6,
			"type":"SCALAR"
		},
		{
			"bufferView":27,
			"componentType":5126,
			"count":4,
			"max":[
				-5.13749361038208,
				3.504366159439087,
				-11.153473854064941
			],
			"min":[
				-5.488853931427002,
				3.504366159439087,
				-15.478665351867676
			],
			"type":"VEC3"
		},
		{
			"bufferView":28,
			"componentType":5126,
			"count":4,
			"type":"VEC3"
		},
		{
			"bufferView":29,
			"componentType":5126,
			"count":4,
			"type":"VEC2"
		},
		{
			"bufferView":30,
			"componentType":5126,
			"count":4,
			"type":"VEC2"
		},
		{
			"bufferView":32,
			"componentType":5126,
			"count":4,
			"max":[
				5.525723457336426,
				3.5038716793060303,
				-11.390158653259277
			],
			"min":[
				5.0828070640563965,
				3.503870964050293,
				-15.49837589263916
			],
			"type":"VEC3"
		},
		{
			"bufferView":33,
			"componentType":5126,
			"count":4,
			"type":"VEC3"
		},
		{
			"bufferView":34,
			"componentType":5126,
			"count":4,
			"type":"VEC2"
		},
		{
			"bufferView":35,
			"componentType":5126,
			"count":4,
			"type":"VEC2"
		},
		{
			"bufferView":37,
			"componentType":5126,
			"count":132,
			"max":[
				5.726955890655518,
				2.2374014854431152,
				0.10966776311397552
			],
			"min":[
				-5.7320556640625,
				-2.1412458419799805,
				-19.178600311279297
			],
			"type":"VEC3"
		},
		{
			"bufferView":38,
			"componentType":5126,
			"count":132,
			"type":"VEC3"
		},
		{
			"bufferView":39,
			"componentType":5126,
			"count":132,
			"type":"VEC2"
		},
		{
			"bufferView":40,
			"componentType":5126,
			"count":132,
			"type":"VEC2"
		},
		{
			"bufferView":41,
			"componentType":5123,
			"count":606,
			"type":"SCALAR"
		},
		{
			"bufferView":42,
			"componentType":5126,
			"count":19824,
			"max":[
				5.507551193237305,
				1.9345216751098633,
				0.25569799542427063
			],
			"min":[
				-5.523225784301758,
				-1.9724948406219482,
				-0.0052629741840064526
			],
			"type":"VEC3"
		},
		{
			"bufferView":43,
			"componentType":5126,
			"count":19824,
			"type":"VEC3"
		},
		{
			"bufferView":44,
			"componentType":5126,
			"count":19824,
			"type":"VEC2"
		},
		{
			"bufferView":45,
			"componentType":5126,
			"count":19824,
			"type":"VEC2"
		},
		{
			"bufferView":46,
			"componentType":5123,
			"count":115128,
			"type":"SCALAR"
		}
	],
	"bufferViews":[
		{
			"buffer":0,
			"byteLength":96,
			"byteOffset":0,
			"target":34962
		},
		{
			"buffer":0,
			"byteLength":96,
			"byteOffset":96,
			"target":34962
		},
		{
			"buffer":0,
			"byteLength":64,
			"byteOffset":192,
			"target":34962
		},
		{
			"buffer":0,
			"byteLength":64,
			"byteOffset":256,
			"target":34962
		},
		{
			"buffer":0,
			"byteLength":24,
			"byteOffset":320,
			"target":34963
		},
		{
			"buffer":0,
			"byteLength":41444,
			"byteOffset":344
		},
		{
			"buffer":0,
			"byteLength":2064,
			"byteOffset":41788,
			"target":34962
		},
		{
			"buffer":0,
			"byteLength":2064,
			"byteOffset":43852,
			"target":34962
		},
		{
			"buffer":0,
			"byteLength":1376,
			"byteOffset":45916,
			"target":34962
		},
		{
			"buffer":0,
			"byteLength":1376,
			"byteOffset":47292,
			"target":34962
		},
		{
			"buffer":0,
			"byteLength":960,
			"byteOffset":48668,
			"target":34963
		},
		{
			"buffer":0,
			"byteLength":96,
			"byteOffset":49628,
			"target":34962
		},
		{
			"buffer":0,
			"byteLength":96,
			"byteOffset":49724,
			"target":34962
		},
		{
			"buffer":0,
			"byteLength":64,
			"byteOffset":49820,
			"target":34962
		},
		{
			"buffer":0,
			"byteLength":64,
			"byteOffset":49884,
			"target":34962
		},
		{
			"buffer":0,
			"byteLength":36,
			"byteOffset":49948,
			"target":34963
		},
		{
			"buffer":0,
			"byteLength":432,
			"byteOffset":49984,
			"target":34962
		},
		{
			"buffer":0,
			"byteLength":432,
			"byteOffset":50416,
			"target":34962
		},
		{
			"buffer":0,
			"byteLength":288,
			"byteOffset":50848,
			"target":34962
		},
		{
			"buffer":0,
			"byteLength":288,
			"byteOffset":51136,
			"target":34962
		},
		{
			"buffer":0,
			"byteLength":156,
			"byteOffset":51424,
			"target":34963
		},
		{
			"buffer":0,
			"byteLength":48,
			"byteOffset":51580,
			"target":34962
		},
		{
			"buffer":0,
			"byteLength":48,
			"byteOffset":51628,
			"target":34962
		},
		{
			"buffer":0,
			"byteLength":32,
			"byteOffset":51676,
			"target":34962
		},
		{
			"buffer":0,
			"byteLength":32,
			"byteOffset":51708,
			"target":34962
		},
		{
			"buffer":0,
			"byteLength":12,
			"byteOffset":51740,
			"target":34963
		},
		{
			"buffer":0,
			"byteLength":6311,
			"byteOffset":51752
		},
		{
			"buffer":0,
			"byteLength":48,
			"byteOffset":58064,
			"target":34962
		},
		{
			"buffer":0,
			"byteLength":48,
			"byteOffset":58112,
			"target":34962
		},
		{
			"buffer":0,
			"byteLength":32,
			"byteOffset":58160,
			"target":34962
		},
		{
			"buffer":0,
			"byteLength":32,
			"byteOffset":58192,
			"target":34962
		},
		{
			"buffer":0,
			"byteLength":58284,
			"byteOffset":58224
		},
		{
			"buffer":0,
			"byteLength":48,
			"byteOffset":116508,
			"target":34962
		},
		{
			"buffer":0,
			"byteLength":48,
			"byteOffset":116556,
			"target":34962
		},
		{
			"buffer":0,
			"byteLength":32,
			"byteOffset":116604,
			"target":34962
		},
		{
			"buffer":0,
			"byteLength":32,
			"byteOffset":116636,
			"target":34962
		},
		{
			"buffer":0,
			"byteLength":30482,
			"byteOffset":116668
		},
		{
			"buffer":0,
			"byteLength":1584,
			"byteOffset":147152,
			"target":34962
		},
		{
			"buffer":0,
			"byteLength":1584,
			"byteOffset":148736,
			"target":34962
		},
		{
			"buffer":0,
			"byteLength":1056,
			"byteOffset":150320,
			"target":34962
		},
		{
			"buffer":0,
			"byteLength":1056,
			"byteOffset":151376,
			"target":34962
		},
		{
			"buffer":0,
			"byteLength":1212,
			"byteOffset":152432,
			"target":34963
		},
		{
			"buffer":0,
			"byteLength":237888,
			"byteOffset":153644,
			"target":34962
		},
		{
			"buffer":0,
			"byteLength":237888,
			"byteOffset":391532,
			"target":34962
		},
		{
			"buffer":0,
			"byteLength":158592,
			"byteOffset":629420,
			"target":34962
		},
		{
			"buffer":0,
			"byteLength":158592,
			"byteOffset":788012,
			"target":34962
		},
		{
			"buffer":0,
			"byteLength":230256,
			"byteOffset":946604,
			"target":34963
		}
	],
	"samplers":[
		{
			"magFilter":9729,
			"minFilter":9987,
			"wrapS":33071,
			"wrapT":33071
		}
	],
	"buffers":[
		{
			"byteLength":1176860,
			"uri":"data:application/octet-stream;base64,"
		}
	]
}
